<svg width="30" height="40" viewBox="0 0 30 40" fill="none" xmlns="http://www.w3.org/2000/svg">
<rect width="30" height="40" fill="white" fill-opacity="0.77"/>
<g clip-path="url(#clip0)">
<path d="M12.0021 20.0001C12.0021 19.8959 12.042 19.8037 12.1225 19.7234L17.7255 14.1203C17.8056 14.0402 17.8978 14 18.002 14C18.1062 14 18.1985 14.0402 18.2786 14.1203L18.8797 14.7216C18.96 14.8017 19 14.8938 19 14.9981C19 15.1025 18.96 15.1945 18.8797 15.2747L14.1543 20.0001L18.8797 24.7257C18.96 24.8058 19 24.898 19 25.0021C19 25.1064 18.96 25.1986 18.8797 25.2788L18.2786 25.8798C18.1985 25.96 18.1062 26 18.002 26C17.8979 26 17.8056 25.9599 17.7255 25.8798L12.1225 20.2767C12.042 20.1966 12.0021 20.1043 12.0021 20.0001Z" fill="#444444"/>
</g>
<defs>
<clipPath id="clip0">
<rect width="6.99787" height="12" transform="matrix(-1 0 0 1 19 14)" fill="white"/>
</clipPath>
</defs>
</svg>
