<svg width="30" height="40" viewBox="0 0 30 40" fill="none" xmlns="http://www.w3.org/2000/svg">
<rect width="30" height="40" transform="matrix(-1 0 0 1 30 0)" fill="white" fill-opacity="0.77"/>
<g clip-path="url(#clip0)">
<path d="M17.9979 20.0001C17.9979 19.8959 17.958 19.8037 17.8775 19.7234L12.2745 14.1203C12.1944 14.0402 12.1022 14 11.998 14C11.8938 14 11.8015 14.0402 11.7214 14.1203L11.1203 14.7216C11.04 14.8017 11 14.8938 11 14.9981C11 15.1025 11.04 15.1945 11.1203 15.2747L15.8457 20.0001L11.1203 24.7257C11.04 24.8058 11 24.898 11 25.0021C11 25.1064 11.04 25.1986 11.1203 25.2788L11.7214 25.8798C11.8015 25.96 11.8938 26 11.998 26C12.1021 26 12.1944 25.9599 12.2745 25.8798L17.8775 20.2767C17.958 20.1966 17.9979 20.1043 17.9979 20.0001Z" fill="#444444"/>
</g>
<defs>
<clipPath id="clip0">
<rect x="11" y="14" width="6.99787" height="12" fill="white"/>
</clipPath>
</defs>
</svg>
