<svg width="18" height="18" viewBox="0 0 18 18" fill="none" xmlns="http://www.w3.org/2000/svg">
<g clip-path="url(#clip0)">
<path d="M7.023 4.51874H10.9769C11.4647 4.51874 11.8616 4.12186 11.8616 3.634V1.69464H11.1584C10.9211 0.723129 10.0433 0 8.9999 0C7.95639 0 7.07861 0.723129 6.84127 1.69464H6.13818V3.634C6.13818 4.12186 6.5351 4.51874 7.023 4.51874Z" fill="#D4D9E9"/>
<path d="M13.801 1.69461H12.9163V3.63397C12.9163 4.70339 12.0462 5.5734 10.9768 5.5734H7.02295C5.9535 5.5734 5.08345 4.70339 5.08345 3.63397V1.69461H4.19871C3.12929 1.69461 2.25928 2.56459 2.25928 3.63397V16.0605C2.25928 17.1299 3.12929 18 4.19871 18H13.801C14.8704 18 15.7404 17.1299 15.7404 16.0605V3.63397C15.7404 2.56459 14.8704 1.69461 13.801 1.69461ZM7.11344 14.9837L5.98377 16.1134C5.88083 16.2164 5.74583 16.2679 5.61093 16.2679C5.47597 16.2679 5.34107 16.2164 5.23807 16.1135L4.67311 15.5487C4.46716 15.3429 4.46709 15.009 4.67297 14.803C4.87888 14.597 5.21279 14.597 5.41873 14.8028L5.61086 14.9949L6.36767 14.238C6.57358 14.0321 6.9075 14.0321 7.11344 14.238C7.31939 14.4439 7.31939 14.7778 7.11344 14.9837ZM7.11348 11.5947L5.9838 12.7244C5.88083 12.8274 5.74583 12.8788 5.61093 12.8788C5.476 12.8788 5.34107 12.8274 5.23807 12.7244L4.67311 12.1597C4.46716 11.9538 4.46709 11.6199 4.67297 11.4139C4.87888 11.208 5.21275 11.2079 5.41873 11.4138L5.61083 11.6058L6.36767 10.8489C6.57362 10.643 6.9075 10.6429 7.11344 10.8489C7.31939 11.0548 7.31939 11.3887 7.11348 11.5947ZM7.11348 8.20572L5.9838 9.33543C5.88083 9.43841 5.74583 9.48988 5.61093 9.48988C5.47593 9.48988 5.341 9.43841 5.23807 9.33547L4.67311 8.77061C4.46713 8.5647 4.46713 8.23079 4.67304 8.02485C4.87895 7.81886 5.21282 7.81886 5.41881 8.02477L5.61086 8.21683L6.36767 7.45999C6.57362 7.25408 6.9075 7.25401 7.11344 7.45999C7.31939 7.6659 7.31939 7.99978 7.11348 8.20572ZM12.9538 16.2679H9C8.70873 16.2679 8.47265 16.0318 8.47265 15.7405C8.47265 15.4493 8.70873 15.2132 9 15.2132H12.9537C13.2449 15.2132 13.4811 15.4493 13.4811 15.7405C13.4811 16.0318 13.245 16.2679 12.9538 16.2679ZM12.9538 12.8788H9C8.70873 12.8788 8.47265 12.6427 8.47265 12.3515C8.47265 12.0603 8.70873 11.8241 9 11.8241H12.9537C13.2449 11.8241 13.4811 12.0603 13.4811 12.3515C13.4811 12.6427 13.245 12.8788 12.9538 12.8788ZM12.9538 9.48988H9C8.70873 9.48988 8.47265 9.25377 8.47265 8.96253C8.47265 8.6713 8.70873 8.43519 9 8.43519H12.9537C13.2449 8.43519 13.4811 8.6713 13.4811 8.96253C13.4811 9.2538 13.245 9.48988 12.9538 9.48988Z" fill="#D4D9E9"/>
</g>
<defs>
<clipPath id="clip0">
<rect width="18" height="18" fill="white"/>
</clipPath>
</defs>
</svg>
