<svg width="16" height="15" viewBox="0 0 16 15" fill="none" xmlns="http://www.w3.org/2000/svg">
<g clip-path="url(#clip0)">
<path d="M10.4628 11.0782C10.4628 11.1688 10.4629 11.2379 10.4628 11.307C10.4625 12.0311 10.4604 12.7552 10.4627 13.4794C10.4635 13.7453 10.3696 13.9567 10.1284 14.0819C9.88706 14.2072 9.66201 14.1616 9.44472 14.006C8.14806 13.0775 6.84792 12.154 5.55311 11.223C5.411 11.1208 5.27314 11.0728 5.09641 11.0736C3.63538 11.08 2.17431 11.0773 0.71323 11.0772C0.24053 11.0771 0.001077 10.8409 0.000974428 10.3717C0.000359 7.16107 0 3.95054 0 0.740052C0 0.227555 0.226631 0 0.737026 0C5.58162 5.12857e-05 10.4263 0.000256428 15.2709 0.00102571C15.768 0.001077 15.9998 0.233657 15.9998 0.729077C16 3.9332 16 7.13732 15.9998 10.3414C15.9997 10.8513 15.7722 11.0769 15.259 11.0771C13.7403 11.0776 12.2215 11.0778 10.7028 11.0782C10.6327 11.0782 10.5626 11.0782 10.4628 11.0782ZM8.0099 3.0776C6.3884 3.0776 4.7669 3.07714 3.1454 3.07791C2.73865 3.07811 2.46053 3.33234 2.46289 3.69698C2.4652 4.05895 2.74666 4.30805 3.15474 4.3081C5.44279 4.3083 7.7308 4.30825 10.0189 4.30825C10.9738 4.30825 11.9288 4.30918 12.8837 4.30764C13.1734 4.30718 13.397 4.16281 13.4938 3.92274C13.6626 3.50425 13.3535 3.07878 12.8744 3.07827C11.2529 3.07652 9.6314 3.0776 8.0099 3.0776ZM8.00067 7.99933C8.00067 7.99969 8.00067 8.00005 8.00067 8.00041C9.34015 8.00041 10.6796 8.00046 12.0192 8.00036C12.3268 8.00036 12.6346 8.00646 12.942 7.9978C13.2617 7.98882 13.5156 7.73819 13.5369 7.42775C13.5577 7.12435 13.3476 6.84433 13.0456 6.7834C12.9651 6.76714 12.8799 6.77022 12.7969 6.77017C10.2205 6.76955 7.64403 6.76971 5.06759 6.76971C4.41385 6.76971 3.76016 6.76971 3.10642 6.76976C2.82851 6.76976 2.62316 6.8929 2.51223 7.14702C2.33042 7.56346 2.6389 7.9978 3.11699 7.99846C4.74485 8.00072 6.37276 7.99933 8.00067 7.99933Z" fill="#D4D9E9"/>
</g>
<defs>
<clipPath id="clip0">
<rect width="16" height="14.1541" fill="white"/>
</clipPath>
</defs>
</svg>
