<svg width="16" height="16" viewBox="0 0 16 16" fill="none" xmlns="http://www.w3.org/2000/svg">
<path d="M14.276 1.00428H12.9876V0.46875C12.9876 0.209844 12.7776 0 12.5188 0C12.2599 0 12.0501 0.209844 12.0501 0.46875V1.00428H9.975V0.46875C9.975 0.209844 9.76516 0 9.50625 0C9.24734 0 9.0375 0.209844 9.0375 0.46875V1.00428H6.96256V0.46875C6.96256 0.209844 6.75272 0 6.49381 0C6.23491 0 6.02506 0.209844 6.02506 0.46875V1.00428H3.95V0.46875C3.95 0.209844 3.74016 0 3.48125 0C3.22247 0 3.0125 0.209844 3.0125 0.46875V1.00428H1.72406C0.773312 1.00428 0 1.77759 0 2.72816V14.276C0 15.2267 0.773312 16 1.724 16H14.276C15.2267 16 16 15.2267 16 14.276V2.72816C16 1.77759 15.2267 1.00428 14.276 1.00428ZM1.724 1.94178H3.01244V1.975C3.01244 2.23391 3.22241 2.44375 3.48119 2.44375C3.74009 2.44375 3.94994 2.23391 3.94994 1.975V1.94178H6.025V1.975C6.025 2.23391 6.23484 2.44375 6.49375 2.44375C6.75266 2.44375 6.9625 2.23391 6.9625 1.975V1.94178H9.03744V1.975C9.03744 2.23391 9.24728 2.44375 9.50619 2.44375C9.76509 2.44375 9.97494 2.23391 9.97494 1.975V1.94178H12.05V1.975C12.05 2.23391 12.2598 2.44375 12.5188 2.44375C12.7775 2.44375 12.9875 2.23391 12.9875 1.975V1.94178H14.2759C14.7097 1.94178 15.0624 2.29456 15.0624 2.72816V5.02087H0.9375V2.72816C0.9375 2.29456 1.29028 1.94178 1.724 1.94178ZM14.276 15.0625H1.724C1.29028 15.0625 0.9375 14.7097 0.9375 14.276V5.95837H15.0625V14.276C15.0625 14.7097 14.7097 15.0625 14.276 15.0625Z" fill="#CBCBCB"/>
</svg>
