<svg width="20" height="20" viewBox="0 0 20 20" fill="none" xmlns="http://www.w3.org/2000/svg">
<g clip-path="url(#clip0)">
<path d="M18.4592 12.5639C18.1841 12.5639 17.9611 12.7869 17.9611 13.062V17.4846C17.9601 18.3096 17.2918 18.9782 16.4668 18.9789H2.49052C1.66553 18.9782 0.99718 18.3096 0.996207 17.4846V4.50456C0.99718 3.67977 1.66553 3.01122 2.49052 3.01025H6.91313C7.18826 3.01025 7.41124 2.78727 7.41124 2.51214C7.41124 2.23721 7.18826 2.01404 6.91313 2.01404H2.49052C1.11567 2.01559 0.00155657 3.12971 0 4.50456V17.4848C0.00155657 18.8597 1.11567 19.9738 2.49052 19.9753H16.4668C17.8416 19.9738 18.9558 18.8597 18.9573 17.4848V13.062C18.9573 12.7869 18.7343 12.5639 18.4592 12.5639Z" fill="white"/>
<path d="M18.76 0.732416C17.8846 -0.142963 16.4654 -0.142963 15.59 0.732416L6.70353 9.6189C6.64263 9.6798 6.59865 9.75529 6.57569 9.83818L5.40709 14.0571C5.35903 14.2301 5.40787 14.4153 5.53473 14.5423C5.66179 14.6692 5.84702 14.718 6.01999 14.6702L10.2389 13.5014C10.3218 13.4784 10.3973 13.4344 10.4582 13.3735L19.3445 4.48687C20.2185 3.61091 20.2185 2.19287 19.3445 1.31691L18.76 0.732416ZM7.78885 9.94266L15.0618 2.66957L17.4073 5.01513L10.1342 12.2882L7.78885 9.94266ZM7.32032 10.8828L9.19424 12.7569L6.60215 13.4751L7.32032 10.8828ZM18.6401 3.78252L18.1119 4.31078L15.7661 1.96503L16.2946 1.43677C16.7808 0.95053 17.5692 0.95053 18.0554 1.43677L18.6401 2.02126C19.1256 2.50808 19.1256 3.2959 18.6401 3.78252Z" fill="white"/>
</g>
<defs>
<clipPath id="clip0">
<rect width="20" height="20" fill="white"/>
</clipPath>
</defs>
</svg>
