<svg width="20" height="21" viewBox="0 0 20 21" fill="none" xmlns="http://www.w3.org/2000/svg">
<g filter="url(#filter0_d)">
<g clip-path="url(#clip0)">
<path d="M4.12394 5.91307L9.91304 0.124309C9.99567 0.0415525 10.091 0 10.1986 0C10.3062 0 10.4014 0.0415525 10.4842 0.124309L11.1054 0.745421C11.1882 0.828221 11.2295 0.923335 11.2295 1.03115C11.2295 1.13897 11.1882 1.23409 11.1054 1.31689L6.22318 6.19893L11.1053 11.0811C11.1881 11.1639 11.2294 11.2592 11.2294 11.3667C11.2294 11.4745 11.1881 11.5698 11.1053 11.6526L10.4841 12.2735C10.4014 12.3564 10.3062 12.3977 10.1986 12.3977C10.0908 12.3977 9.99562 12.3563 9.91304 12.2735L4.12394 6.48471C4.04118 6.40195 3.99989 6.30662 3.99989 6.19897C3.99989 6.09133 4.04118 5.99604 4.12394 5.91307Z" fill="#777777"/>
<path d="M8.77023 6.19897C8.77023 6.09133 8.81144 5.996 8.89454 5.91307L14.6832 0.124309C14.766 0.0415525 14.8613 0 14.9689 0C15.0766 0 15.1719 0.0415525 15.2547 0.124309L15.8757 0.745464C15.9587 0.828264 16 0.923378 16 1.0312C16 1.13902 15.9587 1.23413 15.8757 1.31693L10.9937 6.19897L15.8757 11.0811C15.9587 11.1639 16 11.2592 16 11.3667C16 11.4745 15.9587 11.5698 15.8757 11.6526L15.2547 12.2735C15.1719 12.3564 15.0766 12.3977 14.969 12.3977C14.8613 12.3977 14.766 12.3563 14.6832 12.2735L8.89454 6.48471C8.81144 6.40195 8.77023 6.30662 8.77023 6.19897Z" fill="#777777"/>
</g>
</g>
<defs>
<filter id="filter0_d" x="0" y="0" width="20" height="20.3977" filterUnits="userSpaceOnUse" color-interpolation-filters="sRGB">
<feFlood flood-opacity="0" result="BackgroundImageFix"/>
<feColorMatrix in="SourceAlpha" type="matrix" values="0 0 0 0 0 0 0 0 0 0 0 0 0 0 0 0 0 0 127 0"/>
<feOffset dy="4"/>
<feGaussianBlur stdDeviation="2"/>
<feColorMatrix type="matrix" values="0 0 0 0 0 0 0 0 0 0 0 0 0 0 0 0 0 0 0.25 0"/>
<feBlend mode="normal" in2="BackgroundImageFix" result="effect1_dropShadow"/>
<feBlend mode="normal" in="SourceGraphic" in2="effect1_dropShadow" result="shape"/>
</filter>
<clipPath id="clip0">
<rect width="12" height="12.3977" transform="matrix(-1 0 0 1 16 0)" fill="white"/>
</clipPath>
</defs>
</svg>
