<svg width="8" height="12" viewBox="0 0 8 12" fill="none" xmlns="http://www.w3.org/2000/svg">
<g clip-path="url(#clip0)">
<path d="M0.592391 0.19229L0.196583 0.585362C0.0729715 0.70907 0.00488351 0.873662 0.00488352 1.04957C0.00488353 1.22538 0.0729835 1.39015 0.196596 1.51386L4.68072 5.99779L0.191616 10.4869C0.0680039 10.6104 -5.35591e-08 10.7752 -4.58741e-08 10.951C-3.81892e-08 11.1268 0.068004 11.2917 0.191616 11.4153L0.584976 11.8085C0.84078 12.0645 1.25747 12.0645 1.51327 11.8085L6.87732 6.46366C7.00084 6.34014 7.08786 6.17556 7.08786 5.99819L7.08786 5.99614C7.08786 5.82023 7.00074 5.65565 6.87732 5.53213L1.52782 0.19229C1.4043 0.0685825 1.23474 0.000674194 1.05894 0.000482513C0.883031 0.000482521 0.715811 0.0685825 0.592391 0.19229Z" fill="#FFC329"/>
</g>
<defs>
<clipPath id="clip0">
<rect y="12" width="12" height="7.08786" transform="rotate(-90 0 12)" fill="white"/>
</clipPath>
</defs>
</svg>
