<svg width="12" height="13" viewBox="0 0 12 13" fill="none" xmlns="http://www.w3.org/2000/svg">
<g clip-path="url(#clip0)">
<path d="M11.8761 5.91307L6.08696 0.124309C6.00433 0.0415525 5.90904 0 5.80136 0C5.6938 0 5.59864 0.0415525 5.51584 0.124309L4.89464 0.745421C4.81184 0.828221 4.77051 0.923335 4.77051 1.03115C4.77051 1.13897 4.81184 1.23409 4.89464 1.31689L9.77682 6.19893L4.89469 11.0811C4.81189 11.1639 4.77055 11.2592 4.77055 11.3667C4.77055 11.4745 4.81189 11.5698 4.89469 11.6526L5.51588 12.2735C5.59864 12.3564 5.6938 12.3977 5.8014 12.3977C5.90922 12.3977 6.00438 12.3563 6.08696 12.2735L11.8761 6.48471C11.9588 6.40195 12.0001 6.30662 12.0001 6.19897C12.0001 6.09133 11.9588 5.99604 11.8761 5.91307Z" fill="#777777"/>
<path d="M7.22977 6.19897C7.22977 6.09133 7.18856 5.996 7.10546 5.91307L1.31675 0.124309C1.234 0.0415525 1.13871 0 1.03106 0C0.92342 0 0.828089 0.0415525 0.745332 0.124309L0.124266 0.745464C0.0413348 0.828264 0 0.923378 0 1.0312C0 1.13902 0.0413348 1.23413 0.124266 1.31693L5.0063 6.19897L0.124266 11.0811C0.0413348 11.1639 0 11.2592 0 11.3667C0 11.4745 0.0413348 11.5698 0.124266 11.6526L0.745289 12.2735C0.828089 12.3564 0.923377 12.3977 1.03102 12.3977C1.13867 12.3977 1.23395 12.3563 1.31675 12.2735L7.10546 6.48471C7.18856 6.40195 7.22977 6.30662 7.22977 6.19897Z" fill="#777777"/>
</g>
<defs>
<clipPath id="clip0">
<rect width="12" height="12.3977" fill="white"/>
</clipPath>
</defs>
</svg>
