<svg width="1466" height="2117" viewBox="0 0 1466 2117" fill="none" xmlns="http://www.w3.org/2000/svg">
<path d="M671.001 477C602 466 551 516 496 516C441 516 335.42 445 272.42 544C209.42 643 361 622 367 698C373 774 247 755 240 827C233 899 361 863 357 955C353 1047 214.5 1082.5 280 1142.5" stroke="#936D13" stroke-dasharray="3 5"/>
<path d="M282.499 1144C395.499 1218 820 1153 829 1224" stroke="#936D13" stroke-dasharray="3 5"/>
<path d="M855.25 1373.43C851.999 1438 573.999 1405 538.999 1400C503.999 1395 329 1372 329 1475C329 1578 707 1484 825.999 1449C944.999 1414 1335 1351 1342 1466C1349 1581 825.999 1462 825.999 1602C825.999 1742 1184 1686 1184 1794C1184 1902 974.998 1865 974.998 1865" stroke="#936D13" stroke-dasharray="3 5"/>
<path d="M970.072 1863.15L988.083 1878.28C988.37 1878.52 988.786 1878.53 989.091 1878.31C989.397 1878.09 989.514 1877.7 989.376 1877.35L985.064 1866.46L994.304 1859.28C994.602 1859.05 994.703 1858.64 994.552 1858.3C994.451 1858.07 994.248 1857.9 994.016 1857.84C993.903 1857.8 993.784 1857.8 993.665 1857.82L970.467 1861.71C970.15 1861.76 969.894 1861.99 969.809 1862.3C969.725 1862.61 969.828 1862.94 970.072 1863.15Z" fill="#FFC329"/>
<path d="M854.652 1377.77L860.334 1367.28C860.423 1367.11 860.389 1366.9 860.249 1366.77C860.108 1366.64 859.899 1366.62 859.739 1366.73L854.772 1369.98L850.26 1366.12C850.115 1366 849.904 1365.99 849.749 1366.1C849.643 1366.17 849.581 1366.29 849.574 1366.41C849.57 1366.47 849.578 1366.53 849.602 1366.59L853.899 1377.72C853.957 1377.87 854.099 1377.97 854.261 1377.98C854.422 1377.99 854.576 1377.91 854.652 1377.77Z" fill="#FFC329"/>
<path d="M744.92 1469.08L733.019 1468.26C732.83 1468.25 732.655 1468.37 732.595 1468.55C732.535 1468.73 732.605 1468.93 732.768 1469.03L737.785 1472.2L736.144 1477.91C736.091 1478.09 736.17 1478.29 736.334 1478.38C736.445 1478.45 736.578 1478.46 736.692 1478.41C736.747 1478.39 736.798 1478.36 736.841 1478.31L745.188 1469.79C745.302 1469.67 745.338 1469.5 745.28 1469.35C745.222 1469.2 745.082 1469.1 744.92 1469.08Z" fill="#FFC329"/>
<path d="M856.676 1660.21L850.966 1649.74C850.875 1649.57 850.682 1649.49 850.497 1649.53C850.312 1649.58 850.182 1649.75 850.184 1649.94L850.209 1655.88L844.517 1657.56C844.334 1657.62 844.211 1657.79 844.219 1657.98C844.223 1658.11 844.288 1658.22 844.386 1658.29C844.433 1658.33 844.488 1658.36 844.549 1658.37L856.224 1660.82C856.384 1660.85 856.548 1660.79 856.644 1660.66C856.74 1660.53 856.753 1660.35 856.676 1660.21Z" fill="#FFC329"/>
<path d="M286.072 1145.35L280.242 1134.94C280.148 1134.77 279.954 1134.69 279.77 1134.74C279.585 1134.79 279.458 1134.96 279.462 1135.15L279.555 1141.08L273.883 1142.84C273.701 1142.89 273.579 1143.07 273.589 1143.26C273.595 1143.38 273.661 1143.5 273.761 1143.57C273.808 1143.61 273.864 1143.63 273.924 1143.64L285.627 1145.96C285.787 1145.99 285.95 1145.93 286.045 1145.79C286.14 1145.66 286.151 1145.49 286.072 1145.35Z" fill="#FFC329"/>
<path d="M832.08 1227.6L832.109 1215.67C832.109 1215.48 831.98 1215.31 831.795 1215.26C831.61 1215.21 831.417 1215.3 831.326 1215.47L828.494 1220.68L822.693 1219.43C822.506 1219.39 822.316 1219.48 822.231 1219.65C822.173 1219.76 822.174 1219.9 822.226 1220.01C822.25 1220.06 822.286 1220.11 822.334 1220.15L831.393 1227.91C831.517 1228.02 831.69 1228.04 831.838 1227.97C831.984 1227.9 832.08 1227.76 832.08 1227.6Z" fill="#FFC329"/>
<g clip-path="url(#clip0)">
<path d="M831.3 22.524C831.3 22.524 831.292 23.059 831.187 24.015" stroke="#936D13" stroke-miterlimit="10"/>
<path d="M830.015 29.885C826.304 43.1 811.884 69.492 755.906 69.599C616.899 69.864 478.233 18.531 390.029 109.198C286.327 215.795 490.459 271.266 623.998 173.198C716.999 104.9 830.015 109.198 830.015 109.198C830.015 109.198 926.981 104.753 1042.49 168.044C1124.9 213.198 1288.9 81.198 1373.9 173.198C1459.9 240.198 1478.48 402.922 1365.57 475.865C1328.6 499.749 1253.39 471.334 1166.9 461.865C1077.9 452.121 998.032 477.147 979.122 483.683" stroke="#936D13" stroke-miterlimit="10" stroke-dasharray="3 5"/>
<path d="M976.302 484.68C975.377 485.015 974.899 485.198 974.899 485.198" stroke="#936D13" stroke-miterlimit="10"/>
<path d="M832.424 25.5238L842.281 4.16677C842.435 3.82677 842.343 3.42077 842.051 3.18477C841.759 2.94677 841.343 2.93877 841.042 3.16477L831.678 10.1878L822.314 3.16477C822.013 2.93777 821.596 2.94677 821.305 3.18277C821.106 3.34177 820.999 3.58077 820.999 3.82177C820.999 3.93877 821.024 4.05477 821.075 4.16477L830.932 25.5218C831.067 25.8138 831.357 25.9998 831.678 25.9998C831.998 25.9998 832.289 25.8138 832.424 25.5238Z" fill="#FFC329"/>
<path d="M620.988 175.14L609.129 176.432C608.941 176.454 608.788 176.6 608.762 176.789C608.735 176.978 608.84 177.161 609.017 177.233L614.516 179.47L613.908 185.375C613.888 185.565 614 185.744 614.179 185.809C614.3 185.854 614.432 185.838 614.537 185.775C614.588 185.745 614.632 185.703 614.667 185.652L621.378 175.789C621.47 175.654 621.475 175.479 621.391 175.34C621.306 175.201 621.15 175.123 620.988 175.14Z" fill="#FFC329"/>
<path d="M1061.55 175.235L1052.82 167.111C1052.68 166.983 1052.47 166.963 1052.31 167.067C1052.14 167.17 1052.07 167.369 1052.14 167.55L1054.04 173.172L1049.18 176.575C1049.02 176.684 1048.96 176.886 1049.03 177.064C1049.07 177.185 1049.17 177.274 1049.29 177.312C1049.34 177.33 1049.4 177.337 1049.46 177.33L1061.31 175.953C1061.48 175.934 1061.61 175.823 1061.66 175.669C1061.71 175.515 1061.67 175.346 1061.55 175.235Z" fill="#FFC329"/>
<path d="M1362.47 477.285L1374.35 476.264C1374.54 476.247 1374.7 476.104 1374.73 475.916C1374.76 475.727 1374.66 475.542 1374.48 475.467L1369.04 473.105L1369.78 467.215C1369.8 467.026 1369.7 466.844 1369.52 466.775C1369.4 466.727 1369.27 466.74 1369.16 466.801C1369.11 466.83 1369.06 466.87 1369.03 466.921L1362.09 476.628C1362 476.761 1361.99 476.936 1362.07 477.077C1362.15 477.217 1362.31 477.299 1362.47 477.285Z" fill="#FFC329"/>
<path d="M666.243 476.35L676.324 482.729C676.485 482.829 676.695 482.809 676.833 482.678C676.972 482.547 677.005 482.339 676.91 482.173L674.003 476.997L678.158 472.757C678.291 472.621 678.315 472.41 678.216 472.248C678.15 472.137 678.037 472.068 677.915 472.052C677.857 472.045 677.796 472.049 677.738 472.068L666.344 475.601C666.187 475.649 666.074 475.783 666.054 475.945C666.033 476.104 666.106 476.264 666.243 476.35Z" fill="#FFC329"/>
</g>
<path d="M354.006 975.643L361.238 966.155C361.352 966.003 361.35 965.792 361.232 965.643C361.113 965.493 360.909 965.443 360.735 965.523L355.326 967.968L351.463 963.461C351.339 963.316 351.132 963.273 350.962 963.358C350.845 963.415 350.766 963.521 350.74 963.641C350.727 963.698 350.726 963.759 350.74 963.819L353.269 975.477C353.304 975.637 353.427 975.761 353.586 975.796C353.743 975.831 353.908 975.771 354.006 975.643Z" fill="#FFC329"/>
<path d="M242.419 815.89L251.582 808.251C251.727 808.129 251.772 807.923 251.69 807.751C251.607 807.578 251.419 807.484 251.232 807.523L245.414 808.703L242.652 803.448C242.564 803.279 242.371 803.192 242.187 803.236C242.061 803.266 241.96 803.352 241.908 803.463C241.883 803.516 241.868 803.575 241.868 803.637L241.737 815.565C241.735 815.728 241.828 815.877 241.975 815.946C242.121 816.015 242.295 815.994 242.419 815.89Z" fill="#FFC329"/>
<path d="M257.003 584.091L264.043 574.46C264.154 574.306 264.148 574.096 264.027 573.949C263.905 573.801 263.7 573.755 263.528 573.838L258.169 576.392L254.216 571.963C254.089 571.82 253.881 571.782 253.713 571.87C253.598 571.929 253.521 572.037 253.497 572.157C253.486 572.215 253.485 572.276 253.501 572.336L256.263 583.941C256.301 584.1 256.427 584.222 256.586 584.253C256.744 584.285 256.908 584.222 257.003 584.091Z" fill="#FFC329"/>
<path d="M970.451 489.539L982.337 488.518C982.526 488.501 982.681 488.358 982.712 488.17C982.743 487.981 982.643 487.796 982.467 487.721L977.021 485.359L977.763 479.469C977.787 479.28 977.679 479.098 977.502 479.029C977.382 478.981 977.25 478.994 977.144 479.055C977.093 479.084 977.047 479.124 977.012 479.175L970.078 488.882C969.983 489.015 969.974 489.19 970.055 489.331C970.135 489.471 970.29 489.553 970.451 489.539Z" fill="#FFC329"/>
<defs>
<clipPath id="clip0">
<rect x="363.999" width="1080.88" height="485.691" fill="white"/>
</clipPath>
</defs>
</svg>
