<svg width="20" height="23" viewBox="0 0 20 23" fill="none" xmlns="http://www.w3.org/2000/svg">
<path d="M0 11.5301C0 11.9637 0.308555 12.3151 0.689241 12.3151H13.8169L11.2563 15.2267C10.9878 15.5325 10.9878 16.03 11.2563 16.3357C11.3885 16.4864 11.5648 16.5639 11.7411 16.5639C11.9175 16.5639 12.0938 16.4864 12.226 16.3357L15.9567 12.0869C16.2252 11.7811 16.2252 11.2837 15.9567 10.9779L12.226 6.72901C11.9575 6.42324 11.5207 6.42324 11.2523 6.72901C10.9838 7.03478 10.9838 7.53223 11.2523 7.83801L13.8089 10.7497H0.689241C0.308555 10.7497 0 11.0965 0 11.5301Z" fill="#444444"/>
<path d="M15.8845 22.693C18.1566 22.693 19.9999 20.5891 19.9999 18.0015V5.05407C19.9999 2.46642 18.1526 0.362518 15.8845 0.362518H4.51604C2.24395 0.362518 0.400635 2.46642 0.400635 5.05407V7.71475C0.400635 8.14831 0.70919 8.49516 1.08587 8.49516C1.46655 8.49516 1.77511 8.14375 1.77511 7.71475V5.05407C1.77511 3.33353 3.00532 1.92789 4.51604 1.92789H15.8845C17.3952 1.92789 18.6254 3.32897 18.6254 5.05407V18.0015C18.6254 19.722 17.3952 21.1277 15.8845 21.1277H4.51604C3.00532 21.1277 1.77511 19.7266 1.77511 18.0015V15.3728C1.77511 14.9392 1.46655 14.5878 1.08587 14.5878C0.705183 14.5878 0.400635 14.9392 0.400635 15.3728V18.0015C0.400635 20.5891 2.24796 22.693 4.51604 22.693H15.8845Z" fill="#444444"/>
</svg>
