<svg width="7" height="12" viewBox="0 0 7 12" fill="none" xmlns="http://www.w3.org/2000/svg">
<g clip-path="url(#clip0)">
<path d="M6.99787 6.00013C6.99787 5.89593 6.95798 5.80366 6.87754 5.72339L1.27452 0.120322C1.19442 0.0402196 1.10218 0 0.997993 0C0.893801 0 0.801527 0.0402196 0.721425 0.120322L0.12028 0.721551C0.040009 0.801696 0 0.893759 0 0.998119C0 1.10248 0.040009 1.19454 0.12028 1.27469L4.84572 6.00013L0.12028 10.7257C0.040009 10.8058 0 10.898 0 11.0021C0 11.1064 0.040009 11.1986 0.12028 11.2788L0.721383 11.8798C0.801527 11.96 0.893759 12 0.99795 12C1.10214 12 1.19437 11.9599 1.27452 11.8798L6.87754 6.27669C6.95798 6.19659 6.99787 6.10432 6.99787 6.00013Z" fill="#777777"/>
</g>
<defs>
<clipPath id="clip0">
<rect width="6.99787" height="12" fill="white"/>
</clipPath>
</defs>
</svg>
