<svg width="7" height="12" viewBox="0 0 7 12" fill="none" xmlns="http://www.w3.org/2000/svg">
<g clip-path="url(#clip0)">
<path d="M0.00213385 6.00013C0.00213385 5.89593 0.042017 5.80366 0.122456 5.72339L5.72548 0.120322C5.80558 0.0402196 5.89782 0 6.00201 0C6.1062 0 6.19847 0.0402196 6.27857 0.120322L6.87972 0.721551C6.95999 0.801696 7 0.893759 7 0.998119C7 1.10248 6.95999 1.19454 6.87972 1.27469L2.15428 6.00013L6.87972 10.7257C6.95999 10.8058 7 10.898 7 11.0021C7 11.1064 6.95999 11.1986 6.87972 11.2788L6.27862 11.8798C6.19847 11.96 6.10624 12 6.00205 12C5.89786 12 5.80563 11.9599 5.72548 11.8798L0.122456 6.27669C0.042017 6.19659 0.00213385 6.10432 0.00213385 6.00013Z" fill="#777777"/>
</g>
<defs>
<clipPath id="clip0">
<rect width="6.99787" height="12" transform="matrix(-1 0 0 1 7 0)" fill="white"/>
</clipPath>
</defs>
</svg>
