<svg width="50" height="49" viewBox="0 0 50 49" fill="none" xmlns="http://www.w3.org/2000/svg">
<g clip-path="url(#clip0)">
<path d="M49.0801 36.6303L31.416 5.42151C30.0976 3.12464 27.6952 1.7179 25 1.7179C22.3048 1.7179 19.9023 3.12473 18.584 5.42151L0.919914 36.6303C-0.339851 38.8699 -0.310457 41.54 1.0372 43.7505C2.35546 45.9614 4.72851 47.2822 7.33593 47.2822H42.6641C45.2715 47.2822 47.6445 45.9614 48.9628 43.7506C50.3105 41.54 50.3398 38.8699 49.0801 36.6303ZM46.4433 42.2865C45.6523 43.6071 44.2167 44.4111 42.6641 44.4111H7.33593C5.78329 44.4111 4.34755 43.6071 3.55673 42.2865C3.14657 41.5972 2.9414 40.8509 2.9414 40.1044C2.9414 39.3866 3.11718 38.6689 3.49804 38.0084L21.1621 6.82835C21.9532 5.42151 23.3887 4.58899 25 4.58899C26.6113 4.58899 28.0468 5.42151 28.8379 6.82835L46.5019 38.0084C47.2637 39.3579 47.2344 40.9657 46.4433 42.2865Z" fill="#FFC329"/>
<path d="M48.9628 43.7506C47.6446 45.9615 45.2716 47.2822 42.6641 47.2822H25V44.4111H42.6641C44.2167 44.4111 45.6525 43.6071 46.4433 42.2865C47.2344 40.9657 47.2637 39.3578 46.502 38.0083L28.8379 6.82835C28.0468 5.42151 26.6113 4.58899 25 4.58899V1.7179C27.6952 1.7179 30.0977 3.12473 31.416 5.42151L49.0801 36.6303C50.3399 38.8699 50.3106 41.54 48.9628 43.7506Z" fill="#FFC329"/>
<path d="M28.1545 37.8087C28.1545 39.0713 27.1004 40.1044 25.812 40.1044C24.5236 40.1044 23.4695 39.0713 23.4695 37.8087C23.4695 36.5461 24.5236 35.5131 25.812 35.5131C27.1004 35.5131 28.1545 36.5461 28.1545 37.8087Z" fill="#444444"/>
<path d="M28.1545 18.2957V29.7739C28.1545 31.0365 27.1004 32.0696 25.812 32.0696C24.5236 32.0696 23.4695 31.0365 23.4695 29.7739V18.2957C23.4695 17.033 24.5236 16 25.812 16C27.1004 16 28.1545 17.033 28.1545 18.2957Z" fill="#444444"/>
</g>
<defs>
<clipPath id="clip0">
<rect width="50" height="49" fill="white"/>
</clipPath>
</defs>
</svg>
